<?xml version="1.0" encoding="utf-8"?>
<!-- Generator: Adobe Illustrator 24.2.3, SVG Export Plug-In . SVG Version: 6.00 Build 0)  -->
<svg version="1.1" id="Layer_8" xmlns="http://www.w3.org/2000/svg" xmlns:xlink="http://www.w3.org/1999/xlink" x="0px" y="0px"
	 viewBox="0 0 609.88 628.7" style="enable-background:new 0 0 609.88 628.7;" xml:space="preserve">
<style type="text/css">
	.st0{fill:#FFFFFF;}
	.st1{fill:url(#SVGID_1_);}
</style>
<linearGradient id="SVGID_1_" gradientUnits="userSpaceOnUse" x1="456.8492" y1="600.8678" x2="310.5605" y2="292.0361">
	<stop  offset="0.047" style="stop-color:#7200FF"/>
	<stop  offset="1" style="stop-color:#FC57FF"/>
</linearGradient>
<path class="st1" d="M361.57,109.18c-84.49,0-157.05,51.06-188.48,124.03h66.96v1.87c0,24.92-20.19,45.11-45.11,45.11h-35.68H43.12
	v1.87c0,24.92,20.19,45.11,45.11,45.11h68.57h83.25v0.26h14.49h5.69v-0.26v-39.8c0-2.42,0.11-4.81,0.35-7.19
	c0.68-7.51,2.5-14.72,5.45-21.63c3.88-9.08,9.21-17.01,16.01-23.83c6.82-6.8,14.75-12.13,23.83-16.01
	c9.08-3.88,18.82-5.82,29.23-5.82h43.65v46.85h-43.65c-6.95,0-12.29,2.68-16.01,8.02c-3.75,5.34-5.62,12.68-5.62,22.02v37.51h52.97
	v0.13h12.31v-43.06h12.31v-0.11H444V212.9h53.26v71.47h28.84v44.46h-28.84v40.04c0,10.15-1.94,19.76-5.82,28.82
	c-3.86,9.08-9.19,17.03-16.01,23.83c-6.8,6.82-14.75,12.15-23.83,16.03c-9.06,3.86-18.82,5.79-29.21,5.79h-43.65v-46.85h43.65
	c6.93,0,12.26-2.66,16.01-7.99c3.75-5.36,5.6-12.68,5.6-22.02v-37.51h-52.95v-0.13h-12.31v43.04h-12.31v0.11h-52.97v71.36h-53.24
	V420.9v-46.74v-0.24h-5.69h-14.49h-74.86H98.23v0.24v1.63c0,24.92,20.19,45.11,45.11,45.11h42.87h47.07L193,431.31
	c37.03,53.32,98.74,88.22,168.57,88.22c113.31,0,205.19-91.85,205.19-205.17C566.76,201.03,474.88,109.18,361.57,109.18z"/>
</svg>
